<svg xmlns="http://www.w3.org/2000/svg" width="282.089" height="282.089" viewBox="0 0 282.089 282.089">
  <g id="status-complete" transform="translate(0.172 0)">
    <path id="Path_1519" data-name="Path 1519" d="M141.416,282.088A141.044,141.044,0,1,1,281.916,140.5a141.044,141.044,0,0,1-140.5,141.589Zm0-265.752a124.112,124.112,0,1,0,87.83,36.346,124.157,124.157,0,0,0-87.83-36.346Z" transform="translate(0 0)" fill="#fb4b01"/>
    <path id="Path_1520" data-name="Path 1520" d="M35.868,112.843H34.779c-2.178,0-4.357-2.178-6.535-4.357L8.614,67.1a7.96,7.96,0,0,1,4.357-10.891,7.96,7.96,0,0,1,10.891,4.357L39.11,92.149l79.533-80.6a8.472,8.472,0,1,1,11.981,11.981L42.4,112.817Z" transform="translate(78.326 78.846)" fill="#fb4b01"/>
  </g>
</svg>
