<svg xmlns="http://www.w3.org/2000/svg" width="73.823" height="73.837" viewBox="0 0 73.823 73.837"><g transform="translate(-0.449)"><path d="M74.084,21.708a26.98,26.98,0,0,0-1.716-8.958,18.914,18.914,0,0,0-10.8-10.8A27.05,27.05,0,0,0,52.607.231C48.655.043,47.4,0,37.375,0S26.1.043,22.158.216A26.988,26.988,0,0,0,13.2,1.933,18.016,18.016,0,0,0,6.652,6.2,18.179,18.179,0,0,0,2.4,12.737,27.053,27.053,0,0,0,.68,21.694C.493,25.646.449,26.9.449,36.926s.043,11.28.216,15.217A26.978,26.978,0,0,0,2.382,61.1a18.911,18.911,0,0,0,10.8,10.8,27.053,27.053,0,0,0,8.958,1.716c3.937.174,5.193.216,15.217.216s11.28-.043,15.217-.216A26.973,26.973,0,0,0,61.535,71.9a18.886,18.886,0,0,0,10.8-10.8,27.071,27.071,0,0,0,1.716-8.958c.173-3.938.216-5.193.216-15.217S74.257,25.646,74.084,21.708ZM67.435,51.855a20.238,20.238,0,0,1-1.269,6.851,12.248,12.248,0,0,1-7.01,7.01A20.31,20.31,0,0,1,52.3,66.985c-3.895.174-5.063.216-14.914.216s-11.034-.043-14.915-.216a20.228,20.228,0,0,1-6.851-1.269,11.362,11.362,0,0,1-4.24-2.755,11.479,11.479,0,0,1-2.755-4.24,20.313,20.313,0,0,1-1.269-6.851c-.174-3.895-.216-5.063-.216-14.915s.043-11.034.216-14.914a20.228,20.228,0,0,1,1.269-6.851,11.223,11.223,0,0,1,2.77-4.241,11.462,11.462,0,0,1,4.24-2.755,20.324,20.324,0,0,1,6.851-1.269c3.895-.173,5.063-.216,14.914-.216,9.866,0,11.034.043,14.915.216A20.238,20.238,0,0,1,59.17,8.193a11.354,11.354,0,0,1,4.24,2.755,11.477,11.477,0,0,1,2.755,4.241,20.321,20.321,0,0,1,1.269,6.851c.173,3.895.216,5.063.216,14.914S67.608,47.96,67.435,51.855Zm0,0" fill="#e94602"/><path d="M143.917,124.5a18.968,18.968,0,1,0,18.968,18.968A18.973,18.973,0,0,0,143.917,124.5Zm0,31.272a12.3,12.3,0,1,1,12.3-12.3A12.306,12.306,0,0,1,143.917,155.772Zm0,0" transform="translate(-106.542 -106.542)" fill="#e94602"/><path d="M371.306,93.03a4.428,4.428,0,1,1-4.429-4.428A4.429,4.429,0,0,1,371.306,93.03Zm0,0" transform="translate(-309.785 -75.822)" fill="#e94602"/></g></svg>