<svg xmlns="http://www.w3.org/2000/svg" width="26.056" height="32.834" viewBox="0 0 26.056 32.834">
  <g id="_001-user" data-name="001-user" transform="translate(1 3)">
    <path id="Path_33" data-name="Path 33" d="M93.976,13.889a6.72,6.72,0,0,0,4.91-2.035,6.719,6.719,0,0,0,2.034-4.91,6.72,6.72,0,0,0-2.035-4.91,6.943,6.943,0,0,0-9.82,0,6.72,6.72,0,0,0-2.035,4.91,6.719,6.719,0,0,0,2.035,4.91A6.721,6.721,0,0,0,93.976,13.889Zm0,0" transform="translate(-82.13 -2)" fill="none" stroke="#ff9442" stroke-width="2"/>
    <path id="Path_34" data-name="Path 34" d="M24,255.56a17.156,17.156,0,0,0-.234-1.822,14.354,14.354,0,0,0-.448-1.832,9.047,9.047,0,0,0-.753-1.708,6.447,6.447,0,0,0-1.136-1.48,5.007,5.007,0,0,0-1.631-1.025,5.637,5.637,0,0,0-2.082-.377,2.114,2.114,0,0,0-1.129.479c-.338.221-.734.476-1.176.758a6.738,6.738,0,0,1-1.521.67,5.908,5.908,0,0,1-3.722,0,6.721,6.721,0,0,1-1.52-.67c-.438-.28-.834-.535-1.177-.758a2.111,2.111,0,0,0-1.128-.479,5.63,5.63,0,0,0-2.082.377,5,5,0,0,0-1.631,1.025,6.447,6.447,0,0,0-1.135,1.48,9.064,9.064,0,0,0-.753,1.709,14.389,14.389,0,0,0-.448,1.832,17.094,17.094,0,0,0-.234,1.823c-.038.552-.058,1.124-.058,1.7a4.788,4.788,0,0,0,1.422,3.622,5.119,5.119,0,0,0,3.664,1.337H18.97a5.118,5.118,0,0,0,3.664-1.337,4.786,4.786,0,0,0,1.422-3.622C24.055,256.682,24.036,256.109,24,255.56Zm0,0" transform="translate(0 -233.389)" fill="none" stroke="#ff9442" stroke-width="2"/>
  </g>
</svg>
