<svg xmlns="http://www.w3.org/2000/svg" width="69.033" height="46.716" viewBox="0 0 69.033 46.716">
  <g id="_002-envelope" data-name="002-envelope" transform="translate(0.5 0.5)">
    <g id="Group_2582" data-name="Group 2582">
      <path id="Path_45" data-name="Path 45" d="M62.364,64H5.669C2.543,64,0,66.278,0,69.08v35.557c0,2.8,2.543,5.079,5.669,5.079H62.364c3.127,0,5.669-2.278,5.669-5.08V69.08C68.033,66.278,65.49,64,62.364,64ZM5.669,66.54H62.364a2.974,2.974,0,0,1,.589.107c-4.908,4.025-21.184,17.365-26.879,21.962a3.076,3.076,0,0,1-4.115,0C26.263,84.011,9.987,70.67,5.08,66.647A2.986,2.986,0,0,1,5.669,66.54Zm-2.835,38.1V69.08a2.233,2.233,0,0,1,.159-.7C6.75,71.458,18.106,80.766,25.47,86.765c-7.34,5.649-18.7,15.3-22.485,18.533A2.227,2.227,0,0,1,2.835,104.636Zm59.529,2.54H5.669a2.988,2.988,0,0,1-.639-.116c3.913-3.342,15.344-13.046,22.555-18.573.94.764,1.8,1.461,2.475,2.007a6.142,6.142,0,0,0,7.91,0c.677-.547,1.536-1.244,2.477-2.008C47.659,94.013,59.089,103.717,63,107.06A2.985,2.985,0,0,1,62.364,107.176Zm2.835-2.54a2.232,2.232,0,0,1-.15.662C61.261,102.061,49.9,92.413,42.563,86.766c7.364-6,18.718-15.306,22.476-18.388a2.234,2.234,0,0,1,.159.7Z" transform="translate(0 -64)" fill="#c2660a" stroke="#c2660a" stroke-width="1"/>
    </g>
  </g>
</svg>
