<svg xmlns="http://www.w3.org/2000/svg" width="37.274" height="37.275" viewBox="0 0 37.274 37.275"><path d="M28.344,67.217a2.612,2.612,0,0,0-3.948,0c-.923.915-1.846,1.831-2.754,2.761a.544.544,0,0,1-.76.14c-.6-.326-1.233-.589-1.807-.946a28.635,28.635,0,0,1-6.9-6.283A16.355,16.355,0,0,1,9.7,58.925a.568.568,0,0,1,.14-.729c.923-.892,1.823-1.807,2.73-2.723a2.622,2.622,0,0,0-.008-4.041c-.721-.729-1.443-1.443-2.164-2.172-.745-.745-1.482-1.5-2.234-2.234a2.628,2.628,0,0,0-3.948.008c-.931.915-1.823,1.854-2.769,2.754A4.5,4.5,0,0,0,.033,52.821a12.849,12.849,0,0,0,.993,5.53A33.606,33.606,0,0,0,6.99,68.287a36.912,36.912,0,0,0,12.224,9.564,17.68,17.68,0,0,0,6.771,1.97A4.963,4.963,0,0,0,30.245,78.2c.791-.884,1.683-1.691,2.521-2.536a2.639,2.639,0,0,0,.016-4.018Q30.57,69.424,28.344,67.217Z" transform="translate(-0.006 -42.559)" fill="#fff"/><path d="M246.262,107.03l2.862-.489A12.848,12.848,0,0,0,238.257,96l-.4,2.878a9.929,9.929,0,0,1,8.408,8.152Z" transform="translate(-219.405 -88.554)" fill="#fff"/><path d="M255.258,6.035A21.1,21.1,0,0,0,243.157,0l-.4,2.878a18.415,18.415,0,0,1,15.583,15.1l2.862-.489A21.259,21.259,0,0,0,255.258,6.035Z" transform="translate(-223.925)" fill="#fff"/></svg>