<svg id="_001-whatsapp" data-name="001-whatsapp" xmlns="http://www.w3.org/2000/svg" width="67.959" height="67.959" viewBox="0 0 67.959 67.959">
  <path id="Path_46" data-name="Path 46" d="M57.979,9.98A33.952,33.952,0,0,0,3.939,49.84L.059,65.489A1.991,1.991,0,0,0,2.47,67.9L18.119,64.02A33.948,33.948,0,0,0,57.979,9.98Zm-24,54a29.879,29.879,0,0,1-14.611-3.812,1.993,1.993,0,0,0-1.455-.2L4.719,63.24,7.99,50.045a1.991,1.991,0,0,0-.2-1.455A29.989,29.989,0,1,1,33.979,63.977Zm0,0" fill="#c2660a"/>
  <g id="Component_20_1" data-name="Component 20 – 1" transform="translate(14.302 13.955)">
    <path id="Path_47" data-name="Path 47" d="M145.4,131.209a17.117,17.117,0,0,0-4.451-3.462,5.548,5.548,0,0,0-6.738.975c-.836.836-1.987,2.485-2.649,3.3-1.708-.286-5.12-3.163-6.475-4.513s-4.225-4.767-4.51-6.472c.806-.658,2.461-1.814,3.3-2.649a5.548,5.548,0,0,0,.975-6.738,17.115,17.115,0,0,0-3.461-4.45c-2.687-2.743-6.831-2.946-10.408.632-2.673,2.673-5.055,7.628-1.222,16.056A42.967,42.967,0,0,0,117.48,135.1l.014.014a42.943,42.943,0,0,0,11.215,7.724c5.631,2.561,11.666,3.168,16.056-1.222C148.4,137.985,148.091,133.846,145.4,131.209ZM141.95,138.8c-2.593,2.593-6.493,2.732-11.592.413a39.206,39.206,0,0,1-10.055-6.922,39.217,39.217,0,0,1-6.922-10.055c-2.319-5.1-2.18-9,.413-11.592,1.513-1.513,3.256-2.185,4.748-.661l.029.029c3.535,3.535,3.284,4.76,2.486,5.557-.708.708-2.8,2.128-3.476,2.8-1.587,1.587-1.292,4.044.878,7.3a34.23,34.23,0,0,0,3.811,4.643l0,0a34.266,34.266,0,0,0,4.643,3.811c3.26,2.169,5.717,2.464,7.3.878.677-.677,2.1-2.768,2.8-3.476.539-.539,1.071-.745,2.193-.2a14.465,14.465,0,0,1,3.364,2.69l.029.029C144.147,135.557,143.464,137.286,141.95,138.8Zm0,0" transform="translate(-107.753 -105.139)" fill="#c2660a"/>
  </g>
</svg>
